<?xml version="1.0" standalone="no"?>
<!DOCTYPE svg PUBLIC "-//W3C//DTD SVG 20010904//EN"
 "http://www.w3.org/TR/2001/REC-SVG-20010904/DTD/svg10.dtd">
<svg version="1.0" xmlns="http://www.w3.org/2000/svg"
 width="256.000000pt" height="256.000000pt" viewBox="0 0 256.000000 256.000000"
 preserveAspectRatio="xMidYMid meet">
<metadata>
Created by potrace 1.11, written by Peter Selinger 2001-2013
</metadata>
<g transform="translate(0.000000,256.000000) scale(0.100000,-0.100000)"
fill="#000000" stroke="none">
<path d="M0 1280 l0 -1280 1280 0 1280 0 0 1280 0 1280 -1280 0 -1280 0 0
-1280z m2410 15 l0 -1145 -1135 0 -1135 0 0 1145 0 1145 1135 0 1135 0 0
-1145z"/>
<path d="M270 1295 l0 -1015 1005 0 1005 0 0 1015 0 1015 -1005 0 -1005 0 0
-1015z m1300 145 c0 -335 2 -410 13 -410 8 0 92 16 187 35 95 19 182 35 192
35 17 0 19 -8 16 -82 l-3 -82 -255 -51 c-140 -28 -270 -54 -287 -58 l-33 -6 0
498 0 498 78 15 c42 9 80 16 85 17 4 0 7 -183 7 -409z m-547 259 c49 -13 115
-73 138 -124 36 -79 20 -201 -37 -288 l-25 -37 29 -38 c38 -47 52 -92 52 -158
0 -68 -31 -151 -80 -212 -120 -153 -350 -184 -453 -63 -31 38 -63 119 -51 131
10 9 155 53 158 48 1 -2 7 -16 14 -31 35 -81 179 -60 227 33 18 34 20 93 4
122 -17 32 -72 50 -119 39 l-40 -9 0 84 0 83 42 12 c84 22 128 73 128 147 0
75 -58 114 -138 92 -44 -11 -98 -64 -108 -105 -4 -17 -13 -25 -29 -25 -12 0
-50 -3 -84 -6 -70 -8 -70 -8 -40 71 64 172 252 279 412 234z"/>
</g>
</svg>
